<?xml version="1.0" standalone="no"?>
<!DOCTYPE svg PUBLIC "-//W3C//DTD SVG 20010904//EN"
 "http://www.w3.org/TR/2001/REC-SVG-20010904/DTD/svg10.dtd">
<svg version="1.0" xmlns="http://www.w3.org/2000/svg"
 width="1024.000000pt" height="1024.000000pt" viewBox="0 0 1024.000000 1024.000000"
 preserveAspectRatio="xMidYMid meet">

<g transform="translate(0.000000,1024.000000) scale(0.100000,-0.100000)"
fill="#000000" stroke="none">
<path d="M4320 9629 c-321 -29 -648 -133 -855 -272 -168 -114 -342 -284 -443
-434 -157 -233 -225 -520 -177 -748 31 -147 134 -303 266 -400 l54 -39 -1 -88
c-1 -49 -4 -91 -7 -95 -4 -3 -51 17 -105 45 -137 71 -258 110 -378 120 -323
27 -561 -79 -753 -335 -145 -193 -242 -432 -321 -787 -88 -402 -103 -874 -35
-1110 64 -221 188 -368 378 -451 l64 -28 21 -71 c55 -188 230 -343 452 -402
72 -19 285 -25 380 -11 55 8 55 8 104 -35 l49 -43 -64 -85 c-34 -47 -124 -146
-198 -220 -190 -189 -297 -249 -425 -238 -44 4 -65 13 -121 53 -93 66 -167 88
-273 82 -104 -6 -188 -44 -254 -115 -84 -89 -120 -177 -133 -327 -19 -212 98
-436 272 -518 59 -28 79 -32 153 -33 81 -1 90 -3 190 -52 229 -111 477 -137
795 -82 110 19 322 82 388 116 15 8 27 11 27 6 0 -5 -12 -46 -26 -93 -18 -57
-28 -113 -30 -174 -2 -49 -7 -133 -10 -186 -7 -114 7 -158 77 -234 76 -83 242
-149 357 -143 49 3 60 0 75 -19 10 -12 41 -33 70 -47 l53 -25 12 -177 c11
-157 15 -182 36 -219 18 -31 26 -62 31 -121 3 -43 8 -99 10 -124 l5 -45 -54
-32 c-91 -55 -134 -128 -147 -248 -5 -44 -12 -101 -15 -128 -10 -79 29 -115
161 -150 171 -45 486 -56 664 -23 127 23 153 38 197 112 10 17 12 16 28 -14
14 -28 22 -33 47 -30 23 2 32 -2 42 -22 9 -18 30 -31 77 -47 216 -71 621 -82
817 -22 57 18 64 23 90 70 l27 51 19 -26 c11 -16 28 -26 43 -26 37 0 153 50
158 68 3 10 7 130 8 267 3 212 0 266 -16 354 -16 84 -17 107 -7 123 19 31 23
109 13 273 -6 102 -5 151 2 154 5 2 20 14 32 26 17 17 26 20 40 11 29 -16 299
-14 359 3 79 22 182 78 226 122 62 62 89 128 89 219 0 41 -6 95 -12 120 -6 25
-10 68 -9 96 2 64 -34 209 -104 419 -86 257 -189 474 -314 668 -57 88 -63 101
-52 123 32 72 -1 135 -94 175 -60 26 -66 34 -32 44 66 19 193 75 277 123 115
66 155 96 241 180 l67 64 76 -56 c139 -104 342 -192 528 -230 97 -20 291 -21
390 -2 90 17 217 65 280 105 113 72 205 194 239 316 15 58 17 60 55 66 52 10
168 54 224 86 68 40 176 149 225 228 73 117 109 219 146 410 6 33 14 176 16
317 8 419 -21 653 -127 1013 -137 460 -351 752 -649 881 -135 58 -193 68 -406
68 -170 0 -202 -3 -309 -27 -65 -15 -121 -29 -125 -31 -3 -2 -7 30 -7 72 -4
315 -428 809 -1069 1244 -415 282 -805 463 -1225 568 -191 48 -303 66 -490 79
-161 12 -224 12 -350 0z m335 -119 c377 -26 729 -122 1080 -295 179 -88 218
-112 209 -126 -4 -8 1 -9 16 -4 19 6 22 4 17 -9 -4 -9 -1 -16 5 -16 6 0 9 -3
6 -6 -4 -3 -42 10 -85 29 -242 108 -294 130 -406 171 -134 50 -398 125 -523
149 -276 54 -618 57 -865 7 -485 -99 -882 -381 -1060 -754 -82 -173 -101 -358
-51 -512 31 -97 121 -222 192 -267 22 -14 29 -14 51 -3 l25 12 -11 -43 c-5
-24 -13 -43 -17 -43 -4 0 -49 42 -101 93 -107 105 -156 190 -183 319 -74 347
194 820 606 1067 213 128 467 204 790 234 73 7 160 6 305 -3z m155 -106 c159
-19 331 -55 400 -81 8 -4 18 -6 22 -5 3 1 37 -10 75 -24 37 -14 77 -28 88 -31
36 -9 135 -58 135 -67 0 -4 -7 -5 -16 -2 -65 25 -320 99 -414 120 -239 53
-532 83 -699 71 -202 -15 -457 -70 -607 -130 -102 -41 -283 -135 -332 -172
-18 -13 -31 -19 -30 -11 4 16 79 78 96 78 6 0 12 5 12 11 0 5 5 7 10 4 6 -3
10 -1 10 4 0 6 7 11 15 11 8 0 15 4 15 9 0 5 17 16 38 25 20 9 53 25 72 36 52
29 204 86 292 110 212 58 559 77 818 44z m-240 -703 c27 -53 53 -102 58 -109
5 -8 54 -19 117 -27 100 -13 124 -23 125 -49 0 -10 -56 -66 -125 -123 l-49
-42 22 -88 c20 -83 37 -180 27 -158 -9 20 -55 210 -56 230 0 19 -1 19 -9 -2
-6 -15 -1 -50 16 -113 31 -118 31 -130 2 -103 -13 11 -57 40 -98 66 -41 25
-82 54 -91 65 -10 11 -21 53 -27 93 l-9 74 -2 -87 c-1 -93 0 -92 -82 -151 -13
-9 -39 -28 -58 -42 -19 -13 -38 -22 -42 -19 -5 3 -9 -4 -9 -15 0 -12 2 -21 4
-21 11 0 115 50 127 62 18 17 69 40 69 30 0 -4 -24 -20 -53 -36 -28 -16 -62
-37 -75 -47 -13 -10 -39 -23 -59 -30 -55 -18 -59 -6 -40 110 27 163 26 169
-42 245 -66 72 -85 101 -78 120 3 8 43 18 99 26 51 7 100 17 110 21 9 5 39 53
68 106 64 120 78 137 97 121 8 -7 37 -55 63 -107z m725 -52 c6 -6 5 -19 -5
-37 -21 -37 -100 -62 -217 -69 -106 -7 -115 -23 -13 -23 64 0 97 -11 68 -23
-8 -3 -6 -6 5 -6 16 -1 16 -3 2 -31 -10 -20 -27 -32 -53 -39 -36 -11 -172 -15
-172 -6 0 2 11 21 25 41 29 43 32 75 8 115 -23 38 -64 56 -159 71 -60 9 -72
13 -50 17 49 10 550 0 561 -10z m-1020 1 c-11 -4 -54 -14 -95 -20 -58 -10 -80
-18 -102 -41 -36 -36 -37 -87 -3 -148 l25 -43 -57 4 c-70 5 -133 34 -153 70
-21 38 -5 51 69 52 34 0 61 4 61 7 0 7 -110 29 -141 29 -63 0 -127 47 -113 84
5 14 34 16 268 15 151 0 253 -4 241 -9z m-117 -316 c33 -21 28 -34 -10 -23
-34 9 -54 4 -22 -7 55 -17 59 -23 17 -23 -33 -1 -50 5 -74 27 -42 37 -32 56
25 47 22 -4 51 -13 64 -21z m812 6 c13 -9 12 -13 -8 -30 -12 -10 -47 -26 -76
-34 -64 -19 -66 -19 -66 -6 0 6 3 9 8 9 23 -4 24 4 2 17 -25 15 -25 15 11 9
20 -3 45 -2 55 2 15 6 12 9 -15 13 -19 3 -36 11 -39 18 -5 15 105 17 128 2z
m-360 -199 c28 -19 60 -35 105 -53 26 -10 27 -12 9 -15 -16 -3 -174 71 -174
81 0 9 39 0 60 -13z m605 -61 l50 -7 -55 -1 c-30 -1 -73 3 -95 7 l-40 9 45 0
c25 0 68 -3 95 -8z m-1856 -256 c-17 -21 -21 -11 -8 22 10 23 13 25 16 11 3
-10 -1 -25 -8 -33z m2076 27 c61 -6 166 -16 235 -21 192 -17 441 -56 548 -86
16 -5 22 -14 22 -35 0 -36 -7 -36 -152 -9 -241 44 -653 60 -1613 63 -522 2
-690 -8 -1095 -66 -9 -1 -16 8 -18 24 -3 25 1 28 75 47 151 40 503 86 733 96
170 7 1163 -3 1265 -13z m1125 -69 c18 -11 36 -25 39 -33 4 -12 2 -12 -12 0
-25 20 -81 6 -102 -26 -10 -14 -19 -42 -22 -62 -4 -30 0 -43 22 -69 26 -31 23
-45 -4 -19 -11 10 -13 9 -9 -3 2 -8 24 -25 48 -37 24 -13 36 -23 26 -23 -22 0
-54 16 -85 44 -20 17 -23 18 -18 4 19 -49 18 -52 -3 -28 -72 83 -66 213 12
256 32 19 68 17 108 -4z m778 -72 c0 -19 -5 -51 -12 -70 -11 -30 -22 -39 -87
-66 -41 -17 -96 -41 -122 -52 -41 -19 -49 -20 -54 -6 -7 18 -18 13 112 56 123
41 135 52 135 128 0 25 3 56 7 70 l7 25 7 -25 c4 -14 7 -41 7 -60z m-2557 34
c672 -13 629 -19 -138 -19 -435 0 -789 3 -787 7 3 4 15 8 27 8 12 0 144 3 292
8 149 4 273 6 276 5 3 -1 152 -5 330 -9z m-1484 -56 c-11 -35 -22 -65 -24 -68
-7 -7 -23 24 -23 45 0 27 36 85 53 85 11 0 10 -13 -6 -62z m3287 31 c27 -21
38 -79 15 -79 -6 0 -9 -6 -6 -14 7 -17 -11 -36 -34 -36 -50 0 -95 96 -62 132
21 24 54 23 87 -3z m-2767 5 c-3 -3 -12 -4 -19 -1 -8 3 -5 6 6 6 11 1 17 -2
13 -5z m1711 -1 c-15 -2 -42 -2 -60 0 -18 2 -6 4 27 4 33 0 48 -2 33 -4z m230
-10 c-16 -2 -40 -2 -55 0 -16 2 -3 4 27 4 30 0 43 -2 28 -4z m575 -40 c-7 -72
-10 -74 -14 -10 -3 38 0 57 7 57 8 0 10 -16 7 -47z m-2063 -61 c0 -4 -25 -52
-55 -107 -30 -54 -55 -100 -55 -102 0 -1 -13 -25 -29 -52 -28 -47 -29 -52 -15
-79 8 -16 12 -36 9 -44 -7 -18 -48 -38 -77 -38 -25 0 -68 37 -68 57 0 8 -4 11
-10 8 -5 -3 -10 0 -10 7 0 7 -9 2 -19 -12 -15 -19 -29 -25 -59 -25 -73 0 -95
49 -44 96 15 14 63 87 106 162 l79 137 124 0 c68 0 123 -3 123 -8z m-1473 -38
c94 -27 233 -88 233 -101 0 -5 -4 -13 -9 -18 -5 -6 -16 -34 -25 -63 -8 -29
-31 -71 -50 -94 -38 -44 -106 -177 -127 -245 -7 -24 -14 -43 -16 -43 -3 0 -23
13 -46 30 -53 38 -145 69 -223 77 -67 6 -197 -16 -261 -45 -52 -23 -132 -84
-163 -122 -14 -18 -30 -37 -35 -44 -31 -34 -43 -98 -25 -126 8 -13 14 -13 42
4 25 14 58 21 131 24 151 7 274 -28 385 -110 40 -30 52 -45 53 -66 0 -24 1
-25 10 -7 10 22 12 34 -26 -186 -13 -74 -29 -191 -37 -260 -10 -97 -14 -113
-16 -71 -5 84 -17 60 -15 -30 1 -64 -1 -76 -8 -53 -5 17 -6 45 -3 62 5 25 2
37 -13 50 -11 10 -26 37 -33 61 -11 36 -17 42 -40 42 -22 0 -29 7 -40 40 -7
22 -19 40 -27 40 -7 0 -13 6 -13 14 0 7 -9 16 -21 19 -11 3 -23 15 -26 26 -3
12 -12 21 -19 21 -8 0 -14 6 -14 14 0 7 -9 16 -21 19 -11 3 -23 15 -26 27 -4
15 -11 20 -24 17 -11 -3 -17 -1 -13 4 3 5 -13 9 -35 9 -26 0 -41 5 -41 13 0 6
-18 20 -40 31 -21 10 -39 22 -38 25 4 35 -3 41 -52 41 -39 0 -53 4 -62 20 -7
11 -21 20 -30 20 -14 0 -18 8 -18 35 0 19 -4 35 -10 35 -5 0 -10 -16 -10 -35
0 -32 -2 -35 -30 -35 -26 0 -30 4 -31 28 -1 21 -5 15 -19 -28 l-19 -55 0 50
c-1 38 2 46 10 35 8 -11 9 -6 5 20 -3 19 -3 29 0 21 4 -9 9 -10 13 -3 4 6 26
12 49 13 34 2 42 7 42 22 0 16 -3 17 -14 8 -11 -9 -15 -9 -19 1 -4 10 -9 8
-17 -4 -20 -32 -40 -22 -35 17 14 113 -38 -63 -75 -252 -77 -391 -88 -775 -29
-993 45 -167 124 -267 277 -349 45 -24 80 -46 77 -49 -2 -3 -26 1 -52 8 -192
52 -317 205 -371 455 -23 106 -22 512 1 691 37 286 141 656 238 848 142 283
332 444 564 480 70 10 248 -6 332 -30z m5298 21 c146 -31 264 -92 367 -191
108 -103 207 -241 192 -266 -4 -7 -4 -10 1 -6 10 9 46 -46 48 -73 1 -10 3 -16
6 -14 13 14 134 -322 148 -410 3 -22 10 -48 15 -57 5 -11 5 -18 -1 -18 -5 0
-14 19 -18 43 -7 30 -14 42 -26 41 -21 -2 -22 12 -1 20 8 3 12 11 9 17 -9 14
-34 -20 -35 -45 0 -16 3 -17 12 -8 16 16 28 15 28 -2 0 -7 -11 -16 -24 -18
-18 -4 -27 1 -35 19 -14 30 -29 29 -43 -2 -6 -14 -17 -25 -24 -25 -7 0 -19 -9
-26 -19 -8 -11 -26 -23 -41 -26 -15 -4 -36 -20 -48 -36 -11 -16 -28 -29 -36
-29 -9 0 -14 -2 -11 -5 8 -8 -56 -75 -72 -75 -7 0 -11 -2 -8 -5 8 -8 -56 -75
-72 -75 -7 0 -11 -2 -8 -5 8 -8 -56 -75 -72 -75 -7 0 -11 -3 -8 -6 3 -3 -11
-23 -32 -44 -21 -21 -36 -41 -33 -44 3 -2 -5 -2 -17 1 -15 4 -26 -1 -36 -16
-12 -17 -25 -21 -65 -21 -35 0 -49 -4 -49 -14 0 -9 -18 -15 -56 -19 -40 -4
-60 -11 -70 -26 -8 -11 -24 -21 -36 -23 -12 -2 -29 -16 -38 -33 -18 -33 -50
-44 -142 -52 -32 -3 -58 -9 -58 -14 0 -5 -19 -10 -42 -11 l-43 -1 40 -7 c34
-7 32 -7 -15 -4 -47 3 -58 0 -68 -16 -7 -11 -21 -20 -32 -20 -10 0 -26 -10
-34 -22 -10 -14 -25 -21 -44 -20 -25 0 -31 -5 -42 -39 -7 -21 -16 -39 -19 -39
-25 1 -51 15 -52 29 -1 9 -4 5 -9 -9 -4 -14 -9 -18 -9 -10 -1 8 -6 93 -11 189
-9 155 -30 332 -46 398 -4 16 -2 23 8 23 8 0 26 10 40 23 159 140 378 267 586
337 132 45 213 60 322 60 121 0 201 -13 259 -43 37 -18 51 -21 69 -13 19 9 21
16 16 41 -18 84 -91 169 -200 233 -107 63 -180 83 -319 89 -137 6 -231 -6
-343 -43 -169 -57 -284 -126 -467 -280 -188 -158 -264 -248 -218 -260 13 -4
19 -17 20 -46 2 -23 10 -49 18 -58 8 -9 15 -20 15 -24 0 -7 59 -87 72 -96 27
-21 52 -450 39 -665 -24 -404 -104 -692 -250 -905 -238 -348 -707 -565 -1286
-595 -66 -3 -151 -8 -190 -10 -38 -2 -86 0 -105 4 -30 6 -22 8 50 14 95 8 347
47 514 78 413 77 744 253 923 489 105 138 202 358 233 525 6 33 22 105 35 160
23 98 45 397 25 350 l-9 -20 -1 20 c-1 18 -3 17 -13 -5 -6 -14 -14 -27 -18
-30 -3 -3 -8 -16 -11 -30 -8 -34 -28 -90 -44 -122 -8 -14 -14 -33 -14 -42 0
-9 -4 -16 -9 -16 -8 0 -25 -49 -21 -59 1 -2 -3 -7 -9 -10 -5 -4 -29 -43 -53
-88 -38 -72 -98 -151 -175 -231 -13 -12 -23 -27 -23 -32 0 -6 -9 -10 -20 -10
-13 0 -18 -5 -14 -15 4 -10 0 -15 -14 -15 -12 0 -23 -9 -27 -20 -3 -11 -12
-20 -19 -20 -7 0 -25 -9 -39 -20 -14 -11 -30 -20 -37 -20 -14 0 -55 -30 -107
-77 -20 -18 -42 -33 -48 -33 -7 0 -23 -8 -36 -19 -13 -10 -38 -22 -56 -25 -17
-4 -34 -13 -36 -20 -3 -8 -28 -20 -56 -27 -28 -7 -51 -18 -51 -23 0 -19 -51
-37 -67 -25 -7 6 -13 7 -13 2 0 -9 -36 -20 -170 -51 -86 -20 -104 -23 -150
-23 -14 0 -32 -3 -40 -6 -42 -18 -440 -22 -440 -4 0 15 -233 -9 -315 -33 -27
-8 -70 -20 -95 -26 -46 -11 -171 -68 -180 -81 -3 -4 -18 -11 -33 -14 -15 -4
-30 -11 -33 -16 -3 -5 -13 -9 -23 -9 -10 0 -24 -11 -31 -25 -8 -15 -22 -25
-36 -25 -33 0 -54 -10 -54 -26 0 -8 -7 -14 -15 -14 -8 0 -23 -9 -32 -20 -10
-11 -32 -25 -50 -31 -18 -6 -33 -15 -33 -20 0 -5 -6 -9 -13 -9 -7 0 -18 -9
-25 -20 -7 -11 -18 -20 -25 -20 -8 0 -30 -18 -50 -40 -19 -22 -40 -40 -44 -40
-5 0 -18 -10 -29 -22 -11 -13 -40 -39 -64 -58 -23 -19 -61 -53 -84 -74 -22
-21 -55 -45 -73 -53 -40 -16 -83 -52 -83 -68 0 -6 -13 -12 -29 -12 -30 0 -53
-16 -120 -84 -38 -38 -89 -69 -116 -69 -8 0 -24 -9 -35 -20 -11 -11 -25 -20
-30 -20 -5 0 -10 -7 -10 -15 0 -12 -4 -13 -18 -6 -14 8 -25 4 -45 -15 -14 -13
-29 -24 -33 -24 -4 0 -22 -11 -40 -25 -18 -14 -55 -30 -83 -36 -52 -11 -65
-24 -33 -32 9 -3 -3 -3 -28 -1 -33 3 -38 1 -20 -4 20 -7 14 -10 -37 -16 -35
-4 -63 -11 -63 -16 0 -4 -23 -11 -50 -15 -28 -4 -57 -13 -65 -21 -7 -8 -21
-14 -29 -14 -9 0 -16 -5 -16 -12 0 -9 -3 -9 -12 0 -9 9 -15 9 -26 0 -10 -9
-18 -9 -31 -1 -14 9 -25 8 -47 -6 -49 -29 -216 -43 -420 -35 -190 8 -191 8
-242 2 -24 -2 -32 -7 -29 -19 2 -9 -1 -16 -7 -16 -7 0 -11 36 -12 106 -1 82
-6 118 -22 161 -88 226 -326 227 -373 2 -29 -139 17 -275 118 -353 55 -43 58
-44 126 -43 40 1 64 -2 57 -6 -10 -6 -3 -11 20 -17 l34 -9 -36 -17 c-52 -24
-141 -22 -197 5 -61 29 -118 89 -148 154 -32 71 -56 204 -49 276 12 126 90
254 182 298 38 19 57 22 118 18 98 -6 163 -42 229 -125 52 -67 63 -75 54 -43
-4 16 0 20 16 20 51 -1 110 -19 133 -40 29 -28 32 -13 4 23 -11 14 -20 28 -20
31 0 11 74 -24 100 -47 20 -18 20 -16 -4 10 -28 31 -28 53 0 53 29 0 153 70
225 128 41 33 113 99 161 148 200 204 298 354 568 874 73 140 155 295 182 343
44 80 69 167 48 167 -4 0 -46 -40 -92 -89 -79 -84 -162 -210 -269 -408 -18
-34 -37 -59 -43 -56 -5 3 -6 1 -2 -5 4 -6 -4 -33 -18 -59 -20 -39 -24 -43 -23
-21 1 14 5 24 10 21 12 -7 8 24 -5 34 -7 6 -51 23 -98 39 -47 15 -88 33 -92
38 -4 6 -10 7 -14 4 -6 -7 -10 -5 -57 37 -15 14 -35 25 -43 25 -7 0 -14 5 -14
11 0 6 -7 17 -15 25 -8 9 -15 26 -15 40 0 16 -6 24 -17 24 -13 0 -14 3 -5 8 9
6 6 14 -13 32 -14 13 -28 20 -32 17 -12 -12 26 -195 57 -276 33 -86 87 -167
172 -261 48 -52 56 -65 47 -81 -9 -18 -12 -18 -46 8 -52 40 -148 164 -187 242
-86 170 -121 350 -110 556 3 73 1 222 -6 340 -29 522 63 1029 257 1420 69 138
71 140 94 119 11 -10 19 -22 19 -29 0 -34 119 -97 290 -153 376 -122 747 -169
1255 -159 243 5 308 10 490 36 519 77 1059 256 1276 422 34 27 37 27 75 15 21
-8 107 -22 189 -32 83 -10 152 -19 154 -21 3 -2 -7 -16 -20 -31 -38 -41 -47
-55 -64 -96 l-16 -38 43 30 c290 200 625 349 893 397 99 18 344 18 430 0z
m-4740 -44 c-6 -6 -55 -41 -110 -79 -124 -85 -128 -99 -40 -148 71 -40 54 -45
-25 -8 -103 48 -113 74 -47 127 65 53 264 149 222 108z m3605 -82 c0 -21 -4
-39 -9 -39 -16 0 -164 71 -158 76 3 3 32 -8 66 -25 33 -17 65 -31 71 -31 5 0
10 16 10 36 0 21 4 33 10 29 6 -3 10 -24 10 -46z m-2995 -314 c77 -8 160 -19
185 -24 l45 -9 -61 -1 c-83 -1 -248 16 -309 33 -68 19 -32 19 140 1z m-2138
-567 c-3 -7 -5 -2 -5 12 0 14 2 19 5 13 2 -7 2 -19 0 -25z m7070 -140 c-3 -7
-5 -2 -5 12 0 14 2 19 5 13 2 -7 2 -19 0 -25z m-867 -383 c-7 -8 -16 -15 -21
-15 -5 0 -9 7 -9 15 0 9 9 15 21 15 18 0 19 -2 9 -15z m-693 -337 c-3 -7 -5
-2 -5 12 0 14 2 19 5 13 2 -7 2 -19 0 -25z m20 0 c-3 -7 -5 -2 -5 12 0 14 2
19 5 13 2 -7 2 -19 0 -25z m-45 -108 l-10 -55 -1 72 c0 39 2 80 7 90 12 29 14
-43 4 -107z m25 38 c-3 -8 -6 -5 -6 6 -1 11 2 17 5 13 3 -3 4 -12 1 -19z
m1477 -560 c-63 -108 -234 -229 -352 -251 -50 -10 -30 7 37 32 33 12 63 26 66
31 4 6 11 10 16 10 6 0 7 -5 3 -12 -4 -6 14 5 41 25 26 20 51 37 55 37 4 0 13
11 20 25 7 13 17 22 22 19 4 -3 8 0 8 6 0 9 79 89 88 90 2 0 0 -6 -4 -12z
m-6556 -283 c22 -22 42 -38 44 -36 1 3 21 -7 43 -21 22 -14 57 -31 78 -39 20
-7 37 -17 37 -22 0 -5 7 -6 16 -3 10 4 13 2 8 -6 -5 -7 0 -9 14 -6 12 4 20 2
16 -3 -3 -5 4 -9 15 -9 12 0 21 -4 21 -10 0 -13 -6 -12 -55 1 -171 47 -338
195 -352 313 -5 39 -3 36 35 -39 23 -44 59 -98 80 -120z m542 -160 c0 -7 -14
-16 -31 -20 -34 -8 -163 3 -194 16 -12 5 7 6 46 2 41 -3 69 -2 73 5 10 16 106
14 106 -3z m4217 -31 c-4 -4 3 -15 15 -25 28 -25 13 -24 -18 0 -17 13 -20 21
-12 24 19 8 22 8 15 1z m128 -96 c22 -8 50 -22 62 -33 23 -19 185 -81 238 -91
17 -3 43 -12 59 -19 16 -8 40 -12 55 -9 21 5 23 3 11 -6 -12 -10 -11 -11 8 -7
12 3 19 1 16 -4 -8 -14 -92 3 -234 46 -108 33 -300 141 -300 168 0 6 10 1 23
-11 12 -11 40 -27 62 -34z m1085 28 c0 -2 -7 -9 -15 -16 -13 -11 -14 -10 -9 4
5 14 24 23 24 12z m-45 -47 c-4 -5 -12 -9 -18 -8 -9 0 -8 2 1 6 6 2 9 10 6 15
-4 7 -2 8 5 4 6 -4 9 -12 6 -17z m-45 -39 c0 -5 -2 -10 -4 -10 -3 0 -8 5 -11
10 -3 6 -1 10 4 10 6 0 11 -4 11 -10z m-28 -15 c1 -16 -101 -63 -174 -81 -58
-15 -130 -13 -115 2 7 7 146 45 170 47 9 1 17 5 17 9 0 5 12 6 28 3 15 -3 21
-2 13 1 -11 5 -8 10 10 20 27 15 50 14 51 -1z m-3147 -127 c-33 -29 -150 -134
-260 -233 -285 -257 -310 -277 -510 -427 -510 -381 -857 -563 -1220 -639 -119
-25 -363 -35 -480 -20 -87 12 -264 65 -334 101 -32 16 -33 18 -14 24 12 4 52
-4 97 -19 106 -35 214 -48 403 -47 205 2 355 24 543 79 223 66 505 206 675
334 66 50 149 111 184 137 84 62 223 175 357 291 164 141 198 169 340 287 157
131 180 147 204 149 10 1 29 9 42 18 41 29 33 18 -27 -35z m2848 25 c-7 -2
-21 -2 -30 0 -10 3 -4 5 12 5 17 0 24 -2 18 -5z m-1505 -311 c23 -12 42 -29
42 -36 0 -22 -74 -75 -135 -97 -32 -11 -81 -19 -119 -19 -66 0 -128 16 -111
28 10 7 35 48 35 57 0 3 -6 5 -13 5 -18 0 -67 24 -67 33 0 11 7 9 62 -19 28
-14 73 -27 101 -29 l51 -4 -36 32 c-20 18 -45 37 -55 44 -16 11 -16 12 8 12
29 1 129 -27 145 -40 12 -10 44 -2 44 11 0 11 -28 20 -43 14 -7 -2 -21 4 -30
14 -17 19 -16 19 30 17 27 -1 67 -11 91 -23z m-1428 -47 c0 -8 -2 -15 -4 -15
-2 0 -6 7 -10 15 -3 8 -1 15 4 15 6 0 10 -7 10 -15z m582 -2 c24 -21 23 -40
-3 -54 -24 -13 -39 1 -39 37 0 36 14 42 42 17z m66 -9 c2 -11 19 -26 42 -36
49 -20 52 -47 11 -89 -40 -39 -72 -38 -105 5 -32 42 -33 64 -3 68 18 2 23 10
25 41 3 40 24 48 30 11z m344 15 c11 -6 34 -12 52 -13 53 -5 56 -6 56 -16 0
-17 -42 -10 -95 15 -27 13 -46 24 -42 24 5 1 17 -4 29 -10z m-727 -7 c-6 -7
-118 -2 -125 4 -2 3 26 4 63 3 37 -1 65 -5 62 -7z m512 -24 c-3 -8 -6 -5 -6 6
-1 11 2 17 5 13 3 -3 4 -12 1 -19z m-507 -2 c0 -2 -8 -10 -17 -17 -16 -13 -17
-12 -4 4 13 16 21 21 21 13z m-175 -44 c28 -3 56 0 71 8 20 11 27 11 42 -3 10
-10 23 -14 28 -10 17 15 -31 -42 -76 -89 l-44 -47 -24 22 c-21 19 -82 133 -82
152 0 5 9 0 20 -10 10 -9 40 -20 65 -23z m711 -109 c-10 -25 -13 -14 -18 67
l-5 75 14 -63 c8 -34 12 -70 9 -79z m-253 81 c24 -49 5 -72 -36 -41 -15 10
-16 16 -5 45 7 17 15 32 18 32 3 0 13 -16 23 -36z m-192 9 c-20 -38 -307 -305
-404 -377 -81 -59 -40 -13 135 155 223 214 299 276 269 222z m-315 -109 l27
-45 -39 -41 c-22 -22 -51 -48 -66 -59 l-26 -19 -21 34 c-27 43 -26 61 3 91 14
14 37 40 51 60 15 19 31 32 36 29 5 -3 21 -25 35 -50z m-328 -21 l32 -67 -25
-38 c-14 -20 -25 -42 -25 -48 0 -5 -4 -10 -8 -10 -11 0 -57 159 -49 167 4 3
11 -5 16 -18 l10 -24 1 25 c1 14 1 37 0 53 -3 43 13 31 48 -40z m980 32 c3 -3
-36 -5 -86 -5 -50 0 -93 3 -96 8 -5 8 174 5 182 -3z m461 -131 c17 -26 31 -51
31 -55 0 -13 -35 -28 -47 -21 -22 14 -53 78 -53 110 0 29 2 32 19 23 10 -6 33
-32 50 -57z m506 -196 c114 -238 235 -584 252 -720 8 -70 -11 -59 -26 14 -7
35 -20 81 -28 103 -8 22 -23 67 -33 100 -10 33 -23 74 -28 90 -6 17 -25 75
-42 130 -34 107 -113 302 -161 397 -16 32 -27 58 -23 58 3 0 43 -78 89 -172z
m-1246 148 c-7 -8 -141 -56 -153 -55 -6 0 23 13 64 29 71 27 99 35 89 26z m1
-186 l0 -80 -41 0 c-32 0 -40 -3 -35 -15 3 -8 1 -15 -4 -15 -6 0 -10 9 -10 19
0 11 -6 23 -12 28 -8 5 9 10 42 14 l55 6 -54 1 -53 2 6 31 c3 17 6 42 6 55 0
24 14 31 68 33 l32 1 0 -80z m393 -9 c6 -58 5 -93 -3 -110 l-11 -24 -22 22
c-18 18 -23 36 -27 107 -3 47 -3 88 0 90 2 3 16 4 30 2 24 -3 25 -7 33 -87z
m-207 -5 c-4 -82 -17 -126 -36 -126 -12 0 -17 26 -25 128 l-5 82 35 0 36 0 -5
-84z m-329 -23 c-2 -16 -4 -3 -4 27 0 30 2 43 4 28 2 -16 2 -40 0 -55z m-943
-29 c11 -28 7 -43 -14 -54 -16 -8 -24 -8 -35 4 -16 15 -20 48 -8 59 12 13 51
7 57 -9z m1160 -126 c-18 -19 -48 -17 -52 4 -2 8 2 28 8 43 l11 29 24 -29 c21
-27 22 -32 9 -47z m214 50 c18 -18 15 -36 -10 -49 -17 -9 -20 -9 -15 3 3 8 1
21 -4 29 -6 10 -9 7 -9 -12 0 -31 -7 -39 -26 -32 -20 7 -17 23 8 50 24 26 38
29 56 11z m-308 -116 c13 -29 -3 -61 -27 -58 -10 2 -21 -2 -25 -8 -7 -11 -56
37 -80 79 -11 19 -10 20 9 2 20 -18 21 -17 42 11 12 17 21 36 21 44 0 16 47
-38 60 -70z m445 -31 c-6 -27 -35 -52 -35 -31 0 5 -7 7 -15 3 -9 -3 -22 2 -30
13 -14 18 -14 18 -15 -6 -1 -23 -2 -22 -18 10 -17 35 -17 35 10 58 16 13 28
32 28 41 0 14 10 8 41 -21 35 -33 40 -43 34 -67z m-1027 55 c22 -29 19 -77 -6
-93 -10 -5 -34 -8 -54 -5 -29 3 -39 10 -46 31 -24 67 63 121 106 67z m775 2
c18 -12 33 -22 35 -23 1 -1 -2 -14 -7 -28 -6 -15 -21 -29 -36 -33 -13 -3 -22
-10 -19 -15 3 -5 -1 -9 -9 -9 -18 0 -28 24 -21 48 4 12 3 13 -3 4 -7 -9 -13
-6 -23 13 -12 22 -11 27 5 45 23 26 39 25 78 -2z m-163 -18 c0 -5 -2 -10 -4
-10 -3 0 -8 5 -11 10 -3 6 -1 10 4 10 6 0 11 -4 11 -10z m250 -64 c0 -3 -4 -8
-10 -11 -5 -3 -10 -1 -10 4 0 6 5 11 10 11 6 0 10 -2 10 -4z m-2033 -65 c-1
-27 -5 -47 -8 -45 -4 2 -10 -3 -13 -12 -12 -32 -5 -63 18 -81 20 -16 21 -20 8
-32 -11 -11 -19 -12 -32 -3 -23 14 -30 -1 -37 -92 -6 -67 -5 -70 23 -93 l29
-25 -42 21 c-71 35 -71 37 -13 276 32 133 72 184 67 86z m3146 -11 c4 -16 -6
-30 -46 -61 -103 -82 -231 -127 -387 -136 -91 -5 -107 -3 -119 11 -8 9 -12 18
-10 20 2 2 51 13 109 24 144 29 217 53 335 111 55 27 103 50 106 50 4 1 9 -8
12 -19z m-1857 -124 c11 -15 12 -43 8 -125 -4 -58 -10 -110 -15 -115 -13 -14
-306 7 -321 22 -8 8 -14 49 -16 108 -6 138 -8 136 181 132 133 -3 150 -5 163
-22z m1874 9 c-11 -13 -10 -14 2 -10 34 13 12 -30 -34 -66 -61 -48 -153 -92
-238 -113 -74 -19 -240 -33 -240 -21 0 5 7 17 17 27 15 17 14 18 -23 19 -21 1
11 7 71 15 138 16 283 63 372 119 72 46 93 54 73 30z m-1550 -134 c24 -7 23
-8 -11 -14 -38 -8 -69 -1 -69 14 0 10 44 10 80 0z m288 -13 c-6 -18 -22 -20
-43 -3 -19 14 -18 14 13 15 22 0 32 -4 30 -12z m-1533 -207 c0 -60 -3 -77 -13
-73 -10 3 -11 19 -7 61 6 54 14 91 19 91 1 0 2 -35 1 -79z m-366 -32 c58 -27
79 -43 104 -79 17 -25 48 -65 69 -89 21 -24 38 -52 38 -63 0 -20 -21 -20 -112
3 -46 12 -51 20 -39 64 8 31 7 37 -12 50 -39 28 -45 23 -73 -54 -3 -11 -12 -7
-34 14 -57 54 -82 135 -64 203 7 23 7 23 28 4 11 -10 54 -34 95 -53z m539 59
c13 -13 16 -57 4 -74 -4 -6 -17 -13 -30 -16 -39 -10 -57 49 -25 84 19 21 34
23 51 6z m2759 -99 c3 -46 0 -86 -7 -104 -11 -28 -12 -29 -22 -10 -22 40 -66
48 -75 14 -4 -12 -11 -18 -20 -15 -8 4 -3 -8 12 -26 26 -30 26 -32 9 -45 -10
-8 -53 -24 -94 -37 l-75 -24 -6 46 c-3 26 -7 38 -7 28 -2 -19 -3 -19 -22 -1
-21 19 -21 18 -44 -8 -13 -15 -26 -23 -30 -19 -4 4 -2 -5 5 -21 7 -15 9 -30 6
-33 -3 -4 -40 -3 -82 1 -66 6 -76 9 -72 24 3 14 -1 17 -22 14 -23 -3 -23 -2
-6 6 18 8 19 9 3 16 -23 9 -25 80 -4 88 8 3 61 11 118 17 104 12 281 67 303
94 6 7 17 11 25 8 8 -3 12 -1 8 3 -8 8 28 45 43 45 4 0 10 -6 12 -12 3 -7 6
-4 6 8 1 11 4 24 8 28 14 14 25 -14 30 -85z m-1179 65 c28 -20 30 -69 3 -84
-35 -18 -67 -12 -79 15 -16 35 -15 41 10 65 26 24 37 25 66 4z m-954 -66 c9
-12 16 -37 16 -55 0 -26 -6 -36 -30 -48 -41 -21 -66 -12 -80 30 -9 27 -8 40 5
64 20 39 65 43 89 9z m-805 -153 c1 -28 5 -66 11 -84 11 -39 7 -49 -13 -32
-19 15 -27 83 -20 156 5 47 8 55 14 35 4 -14 7 -48 8 -75z m180 -307 c13 -36
35 -208 27 -216 -14 -13 -34 29 -40 86 -4 31 -9 78 -12 105 -6 50 9 66 25 25z
m1983 -140 l2 -83 6 85 c7 104 22 86 18 -21 -2 -48 -7 -74 -15 -74 -6 0 -15
-3 -19 -7 -19 -20 -24 -1 -24 87 0 78 3 95 15 95 12 0 15 -17 17 -82z m-98 30
c3 -13 6 -53 6 -90 0 -63 -2 -68 -24 -74 -14 -3 -29 -3 -34 0 -12 7 -2 169 12
178 20 14 34 8 40 -14z m-1780 -209 c-5 -10 -72 7 -89 21 -8 7 -15 18 -15 25
0 9 17 5 54 -13 30 -15 52 -30 50 -33z m1906 13 c0 -10 -45 -32 -65 -32 -22 0
-18 16 8 28 27 13 57 15 57 4z m-855 -47 c97 -25 90 -31 -15 -14 -36 5 -72 17
-80 25 -19 18 -12 18 95 -11z m745 16 c0 -11 -59 -33 -71 -26 -4 3 -6 12 -2
20 6 16 73 21 73 6z m-917 -58 c3 -5 10 -74 17 -155 l12 -148 -33 -38 c-19
-20 -42 -53 -53 -73 -15 -29 -35 -43 -107 -76 -49 -23 -89 -40 -89 -38 0 2 30
21 68 41 82 46 104 64 144 126 l31 49 -5 160 c-5 140 -1 178 15 152z m-906
-116 c-4 -55 -9 -102 -12 -105 -12 -12 -16 11 -22 111 l-6 106 23 -6 c22 -6
23 -8 17 -106z m1947 6 c19 -107 31 -278 22 -325 -5 -30 -13 -38 -68 -64 -34
-16 -82 -44 -106 -62 -24 -18 -46 -31 -49 -28 -10 9 92 97 141 123 l49 25 -7
171 c-3 95 -9 189 -12 210 -4 22 -2 37 4 37 5 0 17 -39 26 -87z m-1824 53 c0
-18 -17 -29 -30 -21 -8 5 -7 11 1 21 15 18 29 18 29 0z m410 -67 c0 -86 -67
-229 -107 -229 -13 0 -9 8 14 33 51 51 75 120 71 199 -2 52 0 64 10 56 6 -6
12 -32 12 -59z m536 57 c3 -8 2 -56 -3 -107 -10 -116 -28 -129 -37 -27 -4 40
-9 90 -12 111 -5 35 -4 37 20 37 15 0 29 -6 32 -14z m-618 -20 c3 -12 -1 -17
-10 -14 -7 3 -15 13 -16 22 -3 12 1 17 10 14 7 -3 15 -13 16 -22z m1186 -10
c7 -27 -8 -189 -20 -221 -4 -11 -12 -23 -17 -27 -7 -4 -4 -17 8 -35 9 -15 12
-22 4 -15 -7 6 -21 12 -31 12 -23 0 -23 6 1 35 26 33 44 132 39 209 -4 66 4
88 16 42z m-456 -3 c-2 -10 3 -23 12 -30 18 -14 8 -28 -15 -20 -21 9 -19 67 2
67 3 0 3 -8 1 -17z m380 -11 c5 -31 -15 -27 -21 3 -3 16 0 24 7 22 6 -2 12
-13 14 -25z m-41 -14 c-3 -8 -6 -5 -6 6 -1 11 2 17 5 13 3 -3 4 -12 1 -19z
m-1047 -8 c0 -5 -4 -10 -9 -10 -6 0 -13 5 -16 10 -3 6 1 10 9 10 9 0 16 -4 16
-10z m-413 -27 c-9 -9 -19 -14 -23 -11 -10 10 6 28 24 28 15 0 15 -1 -1 -17z
m400 -41 c1 -18 -3 -32 -8 -32 -5 0 -9 6 -9 14 0 8 -10 18 -22 22 -21 6 -21 7
-3 20 27 20 40 12 42 -24z m-387 18 c0 -5 -7 -10 -16 -10 -8 0 -12 5 -9 10 3
6 10 10 16 10 5 0 9 -4 9 -10z m1510 -20 c0 -35 -3 -37 -30 -10 -18 18 -18 20
-2 29 27 16 32 13 32 -19z m-440 -7 c0 -15 2 -14 15 3 13 17 14 17 15 2 0 -18
-33 -42 -44 -31 -10 10 -7 43 4 43 6 0 10 -8 10 -17z m-718 -58 c-2 -5 -11 -9
-20 -7 -14 2 -14 1 -3 -6 18 -13 5 -32 -20 -32 -13 0 -18 5 -15 13 3 6 9 20
12 30 7 19 52 21 46 2z m-402 -3 c0 -5 -28 -22 -62 -38 -109 -51 -168 -127
-168 -217 0 -19 -4 -27 -12 -25 -35 12 -13 136 33 191 34 41 94 77 149 88 50
10 60 10 60 1z m1540 -26 c0 -14 -5 -28 -12 -32 -19 -12 -57 -14 -63 -3 -3 5
0 6 8 3 10 -3 16 5 20 25 8 40 47 45 47 7z m-1391 3 c55 -19 16 -50 -45 -35
-35 9 -30 40 7 45 3 1 20 -4 38 -10z m-96 -5 c7 -8 -87 -54 -108 -54 -28 0
-24 19 8 39 31 20 87 28 100 15z m1040 -21 c-37 -13 -123 -85 -150 -127 -26
-38 -33 -59 -33 -97 0 -37 -3 -47 -14 -43 -34 13 -22 114 21 177 15 21 40 47
56 59 29 21 118 49 127 40 3 -3 0 -7 -7 -9z m180 -13 c9 0 17 -5 17 -11 0 -16
-102 -7 -108 10 -4 11 3 13 34 8 22 -4 47 -7 57 -7z m-120 -14 c6 -16 -85 -62
-102 -52 -18 12 -13 23 22 45 37 24 73 27 80 7z m-1018 -29 c31 -16 45 -39 34
-59 -31 -57 -93 -66 -140 -19 -37 38 -37 57 3 81 32 19 61 19 103 -3z m305
-13 c0 -20 -7 -17 -20 6 -9 16 -8 18 5 14 8 -4 15 -12 15 -20z m809 -15 c43
-15 56 -41 37 -78 -27 -52 -96 -58 -145 -12 -35 33 -39 51 -13 73 33 29 70 35
121 17z m-479 -143 c0 -5 -187 -96 -197 -96 -8 1 185 100 193 100 2 0 4 -2 4
-4z m1139 -20 c-2 -2 -15 -9 -29 -15 -24 -11 -24 -11 -6 3 16 13 49 24 35 12z
m-2159 -53 c0 -26 -16 -47 -29 -39 -6 4 -11 18 -11 32 0 17 5 24 20 24 12 0
20 -7 20 -17z m1124 -9 c21 -8 20 -27 -3 -55 l-19 -24 -7 27 c-7 26 -2 58 9
58 2 0 11 -3 20 -6z m439 -21 c-13 -2 -35 -2 -50 0 -16 2 -5 4 22 4 28 0 40
-2 28 -4z m457 2 c0 -7 -77 -45 -92 -45 -7 0 10 11 37 24 59 29 55 27 55 21z
m-1687 -20 c37 -4 67 -11 67 -16 0 -16 -123 -8 -175 12 l-50 18 45 -4 c25 -2
75 -7 113 -10z m1218 -43 c23 -9 23 -9 -9 -17 -31 -6 -163 10 -189 24 -19 10
170 3 198 -7z"/>
<path d="M4621 8301 c27 -37 29 -37 22 -11 -3 11 -14 25 -25 31 -18 10 -18 8
3 -20z"/>
<path d="M4295 8206 c-9 -30 -15 -60 -12 -68 3 -8 6 -5 6 7 1 11 8 40 17 64 8
24 13 45 10 48 -2 2 -12 -21 -21 -51z"/>
<path d="M4988 8473 c12 -2 30 -2 40 0 9 3 -1 5 -23 4 -22 0 -30 -2 -17 -4z"/>
<path d="M3938 8473 c6 -2 18 -2 25 0 6 3 1 5 -13 5 -14 0 -19 -2 -12 -5z"/>
<path d="M2159 7393 c-13 -16 -12 -17 4 -4 9 7 17 15 17 17 0 8 -8 3 -21 -13z"/>
<path d="M2126 7361 c-3 -5 2 -15 12 -22 15 -12 16 -12 5 2 -7 9 -10 19 -6 22
3 4 4 7 0 7 -3 0 -8 -4 -11 -9z"/>
<path d="M2049 7283 c-13 -16 -12 -17 4 -4 9 7 17 15 17 17 0 8 -8 3 -21 -13z"/>
<path d="M1891 6974 c-7 -19 -10 -38 -7 -41 3 -4 6 2 6 13 1 19 1 19 15 0 8
-11 15 -15 15 -9 0 7 -5 15 -10 18 -6 3 -7 17 -4 31 9 36 0 29 -15 -12z"/>
<path d="M1906 6877 c3 -10 9 -15 12 -12 3 3 0 11 -7 18 -10 9 -11 8 -5 -6z"/>
<path d="M1849 6849 c-5 -10 -9 -24 -8 -31 0 -7 5 -2 10 11 6 15 15 21 24 17
9 -3 15 0 15 8 0 19 -30 15 -41 -5z"/>
<path d="M1900 6826 c0 -31 6 -34 13 -6 3 11 1 23 -4 26 -5 3 -9 -6 -9 -20z"/>
<path d="M1861 6814 c0 -11 3 -14 6 -6 3 7 2 16 -1 19 -3 4 -6 -2 -5 -13z"/>
<path d="M1881 6814 c0 -11 3 -14 6 -6 3 7 2 16 -1 19 -3 4 -6 -2 -5 -13z"/>
<path d="M2595 6239 c-4 -6 -5 -12 -2 -15 2 -3 7 2 10 11 7 17 1 20 -8 4z"/>
<path d="M8530 7281 c0 -10 29 -36 34 -30 1 2 -6 12 -16 22 -10 9 -18 13 -18
8z"/>
<path d="M3251 6921 c-72 -25 -112 -66 -118 -122 -4 -36 -1 -48 16 -63 23 -21
34 -20 161 14 102 28 120 41 120 89 0 48 -22 78 -68 91 -47 13 -47 13 -111 -9z"/>
<path d="M5583 6923 c-55 -11 -83 -102 -43 -138 11 -10 44 -22 72 -26 29 -5
90 -21 135 -36 l83 -27 27 20 c21 16 29 31 31 62 3 36 -2 47 -35 82 -29 30
-52 43 -98 55 -56 14 -123 17 -172 8z"/>
<path d="M8556 6725 c-9 -26 -7 -32 5 -12 6 10 9 21 6 23 -2 3 -7 -2 -11 -11z"/>
<path d="M3259 6336 c-177 -48 -299 -234 -299 -458 0 -132 49 -271 120 -346
17 -18 28 -37 24 -44 -4 -7 -3 -8 4 -4 6 4 28 -4 49 -18 60 -38 108 -49 193
-44 93 5 144 32 215 110 59 65 93 132 111 217 18 86 18 144 -2 239 -23 114
-61 189 -135 264 -90 90 -169 114 -280 84z m160 -91 c53 -27 81 -71 81 -127 0
-43 -4 -54 -30 -78 -58 -54 -144 -48 -200 16 -88 101 30 251 149 189z m-173
-282 c7 -10 14 -24 14 -30 0 -17 -37 -53 -54 -53 -37 0 -61 61 -34 88 18 18
59 15 74 -5z m-36 -363 c15 -37 37 -50 83 -50 59 0 59 -50 1 -64 -30 -8 -100
24 -126 57 -18 22 -24 68 -11 80 16 16 41 5 53 -23z"/>
<path d="M5560 6326 c-125 -27 -255 -128 -314 -245 -135 -266 -55 -582 177
-696 141 -69 254 -68 405 5 187 89 285 261 268 470 -11 140 -56 241 -153 341
-71 74 -138 112 -227 128 -71 13 -84 13 -156 -3z m187 -100 c70 -33 113 -92
113 -155 0 -59 -29 -108 -77 -127 -41 -17 -156 -20 -196 -5 -42 16 -106 80
-116 116 -39 141 124 241 276 171z m-245 -323 c40 -36 10 -96 -46 -91 -42 4
-61 40 -40 80 17 33 56 38 86 11z m-42 -352 c0 -5 13 -23 29 -40 26 -28 35
-31 85 -31 53 0 56 -1 56 -25 0 -33 -32 -48 -87 -42 -51 5 -120 48 -133 81
-13 36 -2 66 26 66 13 0 24 -4 24 -9z"/>
<path d="M4114 5881 c-47 -8 -103 -29 -79 -31 6 0 -1 -7 -15 -15 -22 -13 -8
-14 130 -9 151 6 158 5 275 -25 66 -18 128 -34 138 -37 11 -4 17 0 17 10 0 9
5 16 11 16 21 0 -35 36 -81 52 -103 37 -291 55 -396 39z"/>
<path d="M7321 5854 c0 -11 3 -14 6 -6 3 7 2 16 -1 19 -3 4 -6 -2 -5 -13z"/>
<path d="M4010 5601 c0 -7 -6 -9 -12 -6 -7 4 -2 -3 12 -14 14 -11 34 -21 45
-21 125 -2 275 -32 378 -76 34 -14 71 -28 82 -30 19 -5 19 -5 1 6 -15 10 -16
14 -5 21 10 6 7 10 -11 18 -21 8 -22 10 -5 10 19 1 19 1 0 15 -11 7 -63 28
-115 46 -85 30 -110 34 -232 38 -103 3 -138 2 -138 -7z"/>
<path d="M3842 5359 c-24 -6 -46 -17 -49 -25 -3 -8 -13 -14 -22 -14 -14 0 -14
-2 -1 -10 8 -5 71 -9 140 -9 185 0 263 -18 434 -102 54 -27 103 -46 107 -43
16 9 10 24 -7 17 -14 -5 -15 -3 -5 15 11 20 7 25 -35 52 -58 36 -173 85 -250
105 -74 19 -256 27 -312 14z"/>
<path d="M3650 5039 c11 -7 4 -8 -24 -3 -28 5 -37 4 -32 -5 4 -7 2 -9 -7 -5
-8 3 -23 -6 -34 -20 -11 -14 -23 -23 -25 -20 -3 2 -10 -2 -17 -10 -10 -12 -6
-13 31 -3 24 5 99 10 168 10 99 0 142 -4 205 -22 100 -28 111 -29 108 -13 -2
6 5 12 15 12 15 1 15 2 -3 16 -32 24 -148 55 -214 57 -34 1 -61 5 -61 10 0 4
-28 7 -62 7 -46 0 -59 -3 -48 -11z m78 -6 c-10 -2 -26 -2 -35 0 -10 3 -2 5 17
5 19 0 27 -2 18 -5z"/>
<path d="M3231 4894 c0 -11 3 -14 6 -6 3 7 2 16 -1 19 -3 4 -6 -2 -5 -13z"/>
<path d="M3425 4726 c-27 -14 -45 -25 -40 -25 6 -1 4 -5 -4 -10 -7 -5 36 -6
100 -4 130 6 208 -8 318 -57 91 -39 144 -28 85 19 -115 90 -349 129 -459 77z"/>
<path d="M3286 4529 l-37 -34 98 0 c140 -1 248 -37 390 -132 49 -32 54 -33 69
-19 14 14 14 19 2 33 -64 82 -261 167 -414 180 -71 6 -72 5 -108 -28z"/>
<path d="M3097 4242 c-19 -21 -19 -21 20 -26 84 -13 132 -29 217 -71 82 -41
106 -47 106 -26 0 15 -62 70 -99 87 -20 9 -44 23 -53 31 -10 9 -47 17 -95 20
-70 5 -80 3 -96 -15z"/>
<path d="M2958 4084 c-34 -18 -36 -29 -6 -31 11 -1 58 -18 104 -37 92 -40 106
-42 124 -22 9 12 4 20 -30 41 -79 50 -155 69 -192 49z"/>
<path d="M3666 3781 c-4 -7 -5 -15 -2 -18 9 -9 19 4 14 18 -4 11 -6 11 -12 0z"/>
<path d="M3335 3590 c3 -5 10 -10 16 -10 5 0 9 5 9 10 0 6 -7 10 -16 10 -8 0
-12 -4 -9 -10z"/>
<path d="M7908 4383 c7 -3 16 -2 19 1 4 3 -2 6 -13 5 -11 0 -14 -3 -6 -6z"/>
<path d="M5519 3909 c-16 -32 4 -48 31 -24 11 10 20 24 20 32 0 21 -38 15 -51
-8z"/>
<path d="M5227 3463 c-15 -14 -6 -23 23 -23 32 0 40 14 14 24 -20 8 -29 8 -37
-1z"/>
<path d="M5260 3148 c0 -19 2 -20 10 -8 13 19 13 30 0 30 -5 0 -10 -10 -10
-22z"/>
<path d="M5466 3143 c-6 -14 -5 -15 5 -6 7 7 10 15 7 18 -3 3 -9 -2 -12 -12z"/>
<path d="M4538 2859 c-22 -12 -26 -111 -5 -126 17 -14 209 -23 230 -11 22 12
25 123 4 131 -9 3 -14 -7 -16 -36 -1 -22 -4 -44 -7 -49 -9 -13 -51 -9 -64 7
-13 16 -120 22 -120 7 0 -5 12 -7 28 -5 15 3 38 0 52 -6 22 -8 18 -10 -28 -10
-47 -1 -54 2 -64 25 -9 19 -9 33 -1 55 6 16 11 29 10 29 -1 0 -10 -5 -19 -11z"/>
<path d="M6781 2524 c0 -11 3 -14 6 -6 3 7 2 16 -1 19 -3 4 -6 -2 -5 -13z"/>
</g>
</svg>
